<?xml version="1.0" standalone="no"?>
<!DOCTYPE svg PUBLIC "-//W3C//DTD SVG 20010904//EN"
 "http://www.w3.org/TR/2001/REC-SVG-20010904/DTD/svg10.dtd">
<svg version="1.0" xmlns="http://www.w3.org/2000/svg"
 width="237.000000pt" height="363.000000pt" viewBox="0 0 237.000000 363.000000"
 preserveAspectRatio="xMidYMid meet">
<metadata>
Created by potrace 1.15, written by Peter Selinger 2001-2017
</metadata>
<g transform="translate(0.000000,363.000000) scale(0.100000,-0.100000)"
fill="#000000" stroke="none">
<path d="M272 2410 c1 -671 0 -1220 -4 -1220 -5 0 -8 32 -8 71 0 63 -2 69 -15
55 -17 -16 -21 -51 -5 -41 6 4 10 -7 9 -27 -1 -21 -3 -26 -6 -13 -3 11 -9 25
-13 30 -4 6 -8 32 -9 59 0 27 -3 51 -6 54 -3 3 -5 -25 -5 -61 0 -38 4 -67 10
-67 6 0 10 -13 10 -30 0 -30 -15 -41 -23 -17 -2 6 -2 3 1 -8 2 -11 7 -41 9
-67 3 -28 9 -45 15 -42 5 3 7 23 3 45 -4 21 -2 46 4 56 8 13 11 -7 11 -82 1
-60 5 -92 9 -80 5 11 6 48 3 81 -3 41 -1 64 7 69 9 5 11 -16 10 -84 l-3 -90
-30 -7 c-17 -4 -61 -17 -99 -29 l-67 -23 0 26 c0 28 -24 123 -58 232 l-20 65
-1 -632 -1 -633 265 0 c204 0 266 3 269 13 2 6 20 113 40 237 21 124 41 229
47 234 5 6 9 25 9 43 0 40 29 115 41 107 15 -9 10 23 -6 39 -7 8 -17 26 -21
41 -3 14 -11 29 -17 33 -6 4 -7 1 -2 -8 4 -8 0 -6 -11 4 -18 17 -17 22 19 195
20 97 40 188 43 202 6 21 5 23 -7 13 -8 -6 -43 -22 -79 -36 -59 -22 -149 -67
-175 -88 -6 -4 -24 -9 -40 -11 l-30 -3 -3 759 -2 758 25 -6 c14 -4 25 -2 25 4
0 5 -7 10 -15 10 -28 0 -33 38 -34 248 0 166 2 211 12 206 9 -5 9 -4 0 7 -10
10 -13 88 -13 321 l0 308 -36 0 -36 0 4 -1220z"/>
<path d="M1349 3620 c-1 -5 -3 -14 -4 -20 -1 -5 -4 -20 -5 -32 -2 -20 -3 -19
-10 7 -7 27 -8 25 -10 -20 -1 -27 -2 -57 -1 -65 0 -10 -1 -11 -5 -2 -9 20 -24
3 -24 -29 0 -29 15 -40 23 -16 2 6 3 -7 1 -30 -1 -24 2 -43 7 -43 5 0 9 15 9
34 0 19 5 38 12 42 8 5 9 2 5 -10 -4 -10 -8 -50 -8 -89 -2 -62 -3 -67 -9 -32
-7 38 -10 35 -14 -9 -1 -21 -77 -50 -110 -42 -11 3 -44 -2 -75 -10 -31 -9 -69
-19 -86 -23 -62 -16 -212 -79 -250 -105 -22 -15 -41 -23 -43 -17 -5 14 -32
-13 -32 -31 0 -10 -3 -9 -10 2 -8 13 -10 12 -10 -2 0 -10 -3 -17 -7 -16 -17 3
-59 -21 -85 -48 -14 -16 -34 -54 -43 -85 -9 -32 -27 -69 -40 -84 -14 -14 -25
-31 -25 -37 0 -6 -7 -33 -16 -62 -33 -104 -34 -112 -24 -142 5 -16 11 -56 13
-89 4 -60 35 -175 48 -175 3 0 12 -20 19 -44 7 -25 19 -47 27 -51 13 -4 15 2
10 42 -5 48 24 153 43 153 4 0 10 15 13 33 14 79 20 103 29 115 7 8 7 12 -1
12 -6 0 -10 16 -8 40 1 22 5 40 9 40 4 0 4 7 1 17 -4 11 -3 14 6 9 8 -5 12 -3
10 5 -3 27 1 40 11 34 9 -6 14 8 11 28 0 4 6 7 14 7 8 0 15 4 15 9 0 6 18 8
40 5 36 -4 43 -1 71 31 17 19 37 35 45 35 8 0 14 5 14 12 0 6 3 9 6 6 3 -4 22
10 41 30 24 25 37 33 40 24 4 -10 8 -10 17 2 7 11 35 17 89 20 42 2 77 1 77
-2 0 -4 13 -7 30 -8 16 -1 27 3 24 7 -2 4 15 8 38 8 24 0 59 1 78 3 19 2 40 0
46 -4 7 -5 17 -2 24 7 10 12 16 13 26 4 11 -9 14 -8 14 1 0 7 7 10 15 6 8 -3
19 2 24 12 6 9 11 12 11 6 0 -7 11 -15 25 -18 14 -4 25 -11 25 -17 0 -6 5 -7
10 -4 6 4 18 1 26 -6 21 -17 80 -104 65 -94 -8 4 -7 -2 3 -17 10 -15 14 -37
11 -61 -4 -28 -1 -39 11 -44 12 -4 14 -14 10 -34 -3 -16 -1 -40 4 -54 5 -14 6
-25 2 -25 -9 0 -3 -143 7 -150 9 -7 14 -31 12 -59 0 -13 4 -30 10 -37 6 -7 12
-30 15 -50 3 -21 6 -40 8 -42 2 -2 0 -17 -4 -33 -5 -17 -5 -31 1 -34 5 -4 9
-23 8 -43 -1 -33 -2 -34 -9 -12 -8 25 -8 25 -15 -7 -4 -18 -6 -34 -4 -35 1 -2
-9 -16 -23 -31 -17 -18 -24 -35 -21 -50 4 -18 3 -19 -6 -7 -9 13 -11 13 -11
-1 0 -8 -15 -22 -32 -30 -19 -8 -35 -24 -38 -37 -6 -26 -18 -30 -32 -10 -6 8
-11 9 -14 2 -5 -11 -61 -7 -69 6 -3 5 5 6 17 4 13 -2 7 2 -12 8 -32 11 -53 25
-85 56 -18 16 -34 15 -31 -2 2 -14 36 -52 36 -41 0 4 14 -7 30 -25 17 -18 30
-40 30 -49 0 -9 9 -22 21 -29 13 -9 19 -19 15 -30 -4 -9 3 -6 14 8 11 15 20
19 20 11 0 -11 3 -11 15 -1 9 8 15 9 15 2 0 -6 -4 -13 -9 -16 -11 -7 -21 -56
-10 -56 4 0 10 6 12 13 4 9 6 9 6 0 1 -7 -8 -18 -19 -25 -11 -7 -20 -20 -20
-28 0 -10 6 -8 19 9 12 16 21 20 25 12 10 -16 24 -14 30 7 2 9 4 6 3 -8 -2
-15 -8 -24 -16 -22 -8 2 -11 -3 -8 -12 4 -11 -2 -18 -19 -22 -13 -3 -24 -11
-23 -18 1 -6 1 -18 0 -26 -1 -13 -2 -13 -11 0 -8 12 -10 10 -10 -8 0 -13 -4
-20 -10 -17 -6 4 -7 12 -3 18 4 7 -1 6 -11 -2 -13 -11 -14 -16 -4 -22 9 -6 8
-9 -4 -14 -19 -7 -100 -110 -92 -117 2 -3 -8 -11 -24 -18 -15 -8 -34 -19 -42
-26 -18 -14 -81 -24 -74 -12 3 4 0 8 -5 8 -6 0 -11 -4 -11 -10 0 -5 -14 -7
-32 -4 -27 5 -30 3 -18 -6 13 -10 12 -11 -3 -6 -10 3 -23 6 -28 6 -6 0 -7 5
-3 12 4 7 3 8 -5 4 -7 -5 -35 -8 -63 -8 -45 1 -48 -1 -32 -13 15 -11 16 -14 4
-14 -8 0 -24 6 -34 14 -16 12 -22 12 -28 2 -6 -9 -8 -8 -8 3 0 13 -1 13 -10 0
-6 -10 -10 -11 -10 -2 0 6 -8 12 -18 12 -18 0 -62 39 -62 54 0 15 -44 47 -57
42 -8 -3 -13 2 -13 15 0 12 -4 17 -11 14 -6 -4 -13 2 -16 14 -3 12 -13 21 -22
22 -10 0 -11 2 -3 6 20 8 14 29 -13 43 -14 7 -30 26 -37 41 -8 19 -15 24 -20
16 -4 -7 -8 3 -8 23 0 28 -3 32 -11 20 -9 -12 -10 -11 -6 8 3 12 2 20 -3 17
-4 -2 -10 14 -14 37 -8 50 -28 67 -78 68 -20 0 -40 5 -43 10 -3 6 -11 10 -17
10 -6 0 -1 -9 12 -20 14 -13 37 -20 61 -20 34 0 39 -3 44 -27 10 -47 44 -150
64 -195 16 -37 29 -107 47 -258 4 -33 11 -64 21 -100 10 -32 3 -186 -12 -288
-15 -106 -15 -108 9 -202 27 -106 41 -146 53 -152 4 -2 18 6 30 19 15 15 18
23 9 23 -8 0 -17 -7 -20 -16 -7 -17 -29 -8 -23 9 2 7 0 20 -5 30 -5 11 -5 17
2 17 5 0 10 7 10 15 0 18 -16 20 -24 3 -3 -7 -3 3 1 22 3 19 7 73 8 120 1 56
7 97 18 120 17 35 17 35 12 5 -5 -26 -4 -27 6 -11 9 15 9 24 -1 39 -9 15 -9
21 0 27 8 5 9 10 1 14 -6 4 -13 -5 -17 -21 -3 -15 -10 -39 -14 -53 -8 -25 -8
-25 -10 5 -2 29 -2 29 -9 5 -4 -14 -7 9 -6 57 0 86 13 102 16 20 2 -29 5 -43
10 -35 5 7 6 24 3 38 -4 22 -3 22 5 5 7 -14 10 -15 11 -5 0 11 4 10 12 -5 13
-22 14 -26 16 -69 2 -22 5 -27 13 -19 8 8 8 17 0 30 -14 27 5 46 31 32 22 -12
24 -39 3 -39 -8 0 -15 9 -15 21 0 11 -4 18 -10 14 -6 -3 -5 -15 2 -31 10 -22
16 -24 49 -19 43 7 70 -2 48 -16 -11 -7 -10 -9 4 -9 10 0 17 -8 17 -20 0 -17
6 -20 28 -18 15 2 31 8 35 13 6 6 10 6 14 -2 8 -21 23 -15 23 8 0 19 2 20 16
8 13 -11 17 -11 25 3 5 10 17 14 34 11 13 -3 22 -9 19 -14 -7 -12 7 -11 26 1
13 8 12 10 -2 10 -30 0 -20 14 32 43 28 16 50 30 50 33 0 3 -6 2 -12 -2 -17
-10 11 26 37 47 12 11 24 14 31 9 6 -6 15 -2 24 10 13 18 14 18 26 2 12 -15
13 -14 14 9 0 18 13 37 40 60 22 19 38 40 35 47 -3 7 0 10 5 7 6 -3 10 -13 10
-21 0 -8 5 -12 10 -9 7 4 7 12 0 24 -14 27 2 35 17 9 13 -23 13 -23 9 5 -4 23
-2 27 13 22 12 -3 20 3 29 22 10 26 11 26 6 3 -11 -46 -66 -159 -78 -157 -6 1
-10 -7 -9 -17 1 -11 -8 -37 -18 -59 -11 -21 -18 -41 -16 -44 7 -7 112 204 132
265 10 32 18 89 19 143 0 49 3 83 5 76 2 -6 14 -28 28 -48 25 -37 54 -175 47
-221 -2 -13 -17 -104 -33 -203 -17 -99 -33 -205 -36 -236 -8 -65 -13 -75 -40
-82 -18 -4 -18 -5 3 -6 12 0 22 -4 22 -7 0 -10 -69 -633 -76 -681 l-5 -43 420
0 421 0 0 1815 0 1815 -510 0 c-332 0 -510 -3 -511 -10z m542 -1518 c-10 -93
-41 -196 -66 -221 -8 -8 -31 -15 -53 -15 -33 -1 -38 2 -40 24 -1 13 5 42 13
65 8 22 14 47 13 55 -1 8 0 38 1 65 1 40 4 46 12 32 6 -9 14 -15 18 -12 5 2
14 -2 21 -10 7 -9 8 -15 2 -15 -5 0 -12 -9 -15 -20 -3 -12 0 -20 7 -20 7 0 21
28 31 63 32 114 35 116 30 23 -3 -49 -3 -87 0 -85 5 6 12 61 23 184 7 74 7 76
10 27 2 -29 -1 -92 -7 -140z m109 -82 c-11 -39 -20 -51 -31 -45 -5 4 -9 1 -9
-5 0 -6 -5 -8 -11 -4 -8 5 -8 1 0 -14 6 -11 11 -29 11 -38 0 -16 -1 -16 -15 2
-14 19 -14 19 -16 -1 0 -11 -3 -31 -5 -45 -10 -58 -18 -233 -12 -243 7 -11 13
23 9 46 -1 5 2 6 6 4 5 -3 7 -26 5 -52 -3 -32 -7 -43 -13 -34 -6 10 -9 7 -10
-11 -1 -32 -6 -84 -8 -89 0 -3 -6 0 -13 7 -9 9 -9 15 -1 23 9 9 9 16 0 30 -10
16 -13 13 -29 -23 -10 -22 -18 -46 -18 -54 0 -8 -4 -14 -10 -14 -14 0 -14 -1
20 83 21 53 33 106 40 179 14 133 36 262 50 288 10 18 40 37 62 39 4 1 3 -12
-2 -29z"/>
<path d="M910 2474 c-14 -3 -32 -8 -40 -11 -8 -3 -23 -5 -34 -4 -27 4 -66 -8
-66 -19 0 -6 10 -10 23 -10 12 0 45 -6 72 -14 l50 -13 -54 -12 c-63 -13 -109
-38 -117 -63 -3 -10 -10 -18 -15 -18 -5 0 -9 -5 -9 -11 0 -7 11 -8 31 -4 17 4
37 8 44 9 7 1 19 7 27 13 11 9 16 8 26 -8 18 -28 76 -26 97 4 l15 22 7 -23 c4
-18 8 -20 14 -10 6 9 9 9 9 1 0 -6 9 -11 20 -10 26 2 25 12 -2 31 -12 9 -17
16 -11 16 7 0 15 -5 18 -10 4 -6 19 -9 35 -8 16 1 26 6 23 11 -3 5 0 13 7 17
8 5 10 15 5 26 -5 11 -9 21 -9 24 -1 3 -15 20 -32 38 -32 34 -77 46 -134 36z"/>
<path d="M1291 2441 c-17 -15 -31 -33 -31 -39 0 -7 -6 -11 -12 -9 -9 1 -14
-14 -16 -45 -3 -42 -1 -47 14 -41 10 3 15 2 12 -3 -3 -5 3 -18 14 -29 14 -14
19 -16 16 -5 -2 10 3 14 15 12 10 -2 30 6 46 17 29 21 29 21 34 1 4 -16 14
-20 50 -20 36 0 46 4 55 23 l11 22 -3 -25 c-3 -25 -45 -45 -77 -35 -9 3 -16 0
-16 -8 0 -9 10 -13 29 -11 46 6 77 12 87 19 6 3 43 6 83 6 73 1 73 2 38 15
-19 8 -25 12 -13 10 15 -3 21 1 21 13 -1 21 9 68 16 80 4 5 2 12 -4 16 -6 4
-8 9 -6 13 4 7 -23 11 -71 12 -13 0 -23 4 -23 9 0 12 -49 20 -56 9 -3 -5 -11
-5 -17 0 -18 13 -57 12 -57 -1 0 -8 -3 -7 -9 2 -5 7 -29 15 -54 17 -37 3 -49
-1 -76 -25z"/>
<path d="M1310 2040 c0 -11 -7 -20 -15 -20 -8 0 -15 5 -15 10 0 6 -11 8 -27 4
-16 -4 -32 -7 -38 -8 -5 0 -13 -5 -16 -10 -11 -14 -107 -18 -115 -4 -5 8 -2 9
10 5 10 -4 15 -3 11 4 -4 5 -14 7 -23 5 -10 -3 -31 -7 -49 -8 -30 -2 -31 -4
-17 -19 9 -10 29 -23 45 -29 27 -12 41 -40 19 -40 -5 0 -10 -7 -10 -16 0 -13
3 -14 14 -5 10 9 16 8 26 -4 7 -9 19 -14 26 -11 6 2 15 2 18 -1 11 -11 115 -6
130 6 8 6 17 24 21 38 3 15 14 33 23 41 9 7 11 11 5 7 -9 -4 -13 1 -13 15 0
11 7 23 15 26 12 5 12 8 0 20 -19 19 -25 18 -25 -6z"/>
<path d="M1414 1925 c-4 -9 -4 -26 -2 -40 3 -13 2 -22 -3 -20 -4 3 -10 1 -14
-5 -3 -5 -16 -10 -28 -10 -89 0 -134 1 -149 6 -10 3 -18 1 -18 -5 0 -5 -8 -9
-17 -9 -10 1 -29 -2 -43 -6 -19 -6 -22 -5 -10 3 17 12 25 11 -136 16 -50 1
-103 5 -117 9 -27 7 -32 0 -21 -29 5 -13 91 -65 109 -65 3 0 5 9 5 21 0 11 4
18 9 15 5 -4 11 0 14 6 3 10 10 8 25 -5 15 -14 21 -15 25 -5 4 10 9 9 20 -5
12 -15 16 -15 20 -3 7 18 43 10 52 -12 5 -14 8 -14 15 -2 5 8 28 15 55 16 42
3 47 1 42 -16 -3 -11 2 -25 10 -31 12 -11 13 -9 8 12 -4 18 -1 30 11 40 16 13
17 11 11 -18 -4 -20 -2 -33 4 -33 6 0 7 -4 4 -10 -3 -5 -2 -10 3 -10 6 0 12 6
15 14 6 14 61 46 80 46 12 0 52 43 67 70 8 16 8 22 -4 26 -9 3 -12 12 -9 22 5
11 2 14 -10 9 -9 -3 -17 -2 -17 2 0 5 6 12 13 14 9 4 9 6 -1 6 -7 1 -15 -6
-18 -14z"/>
<path d="M1181 613 c-1 -7 -8 -13 -16 -13 -8 0 -15 -4 -15 -10 0 -5 -9 -10
-21 -10 -11 0 -17 -4 -14 -10 3 -5 -1 -10 -10 -10 -11 0 -15 -5 -11 -15 3 -8
1 -15 -3 -15 -16 0 -20 28 -6 47 23 29 17 38 -6 9 -22 -28 -45 -35 -35 -11 3
8 1 15 -4 15 -6 0 -10 -8 -10 -17 0 -14 -6 -11 -26 12 l-25 30 23 -37 c15 -24
25 -32 30 -25 6 9 8 9 8 -1 0 -7 5 -10 10 -7 6 3 13 -2 17 -12 4 -10 13 -24
20 -32 16 -15 14 -42 -3 -48 -17 -6 -27 29 -12 40 10 6 8 7 -4 4 -9 -3 -19 -1
-22 6 -4 7 -3 -1 0 -18 7 -36 23 -199 24 -237 0 -16 4 -28 8 -28 4 0 5 33 1
72 -5 51 -3 81 6 98 7 14 10 31 7 39 -3 9 0 11 7 7 7 -4 9 -15 7 -24 -3 -10
-1 -24 4 -32 5 -8 10 -10 11 -5 1 6 2 15 4 20 1 6 3 19 3 29 1 11 5 16 8 13
11 -11 13 -57 3 -63 -5 -3 -9 -12 -9 -20 0 -8 5 -12 10 -9 6 3 10 0 10 -7 0
-7 9 2 20 20 11 18 17 38 14 44 -4 6 -3 8 3 5 6 -4 22 11 37 32 25 36 26 39
11 67 -8 16 -15 35 -15 43 0 8 -3 11 -7 7 -5 -4 -13 9 -20 31 -6 21 -12 32
-12 26z"/>
</g>
</svg>
